<?xml version="1.0" encoding="UTF-8" standalone="no"?>
<svg
   width="16"
   height="16"
   fill="currentColor"
   class="bi bi-bank2"
   viewBox="0 0 16 16"
   version="1.1"
   id="svg1"
   sodipodi:docname="bank2.svg"
   inkscape:version="1.4 (86a8ad7, 2024-10-11)"
   xmlns:inkscape="http://www.inkscape.org/namespaces/inkscape"
   xmlns:sodipodi="http://sodipodi.sourceforge.net/DTD/sodipodi-0.dtd"
   xmlns="http://www.w3.org/2000/svg"
   xmlns:svg="http://www.w3.org/2000/svg">
  <defs
     id="defs1" />
  <sodipodi:namedview
     id="namedview1"
     pagecolor="#ffffff"
     bordercolor="#000000"
     borderopacity="0.25"
     inkscape:showpageshadow="2"
     inkscape:pageopacity="0.0"
     inkscape:pagecheckerboard="0"
     inkscape:deskcolor="#d1d1d1"
     inkscape:zoom="50.9375"
     inkscape:cx="8"
     inkscape:cy="8"
     inkscape:window-width="1920"
     inkscape:window-height="1017"
     inkscape:window-x="-8"
     inkscape:window-y="-8"
     inkscape:window-maximized="1"
     inkscape:current-layer="svg1" />
  <path
     d="M8.277.084a.5.5 0 0 0-.554 0l-7.5 5A.5.5 0 0 0 .5 6h1.875v7H1.5a.5.5 0 0 0 0 1h13a.5.5 0 1 0 0-1h-.875V6H15.5a.5.5 0 0 0 .277-.916zM12.375 6v7h-1.25V6zm-2.5 0v7h-1.25V6zm-2.5 0v7h-1.25V6zm-2.5 0v7h-1.25V6zM8 4a1 1 0 1 1 0-2 1 1 0 0 1 0 2M.5 15a.5.5 0 0 0 0 1h15a.5.5 0 1 0 0-1z"
     id="path1"
     style="fill:#ed1c24;fill-opacity:1" />
</svg>
